<svg id="paperclip" xmlns="http://www.w3.org/2000/svg" width="14.449" height="20" viewBox="0 0 14.449 20">
  <g id="Group_3" data-name="Group 3">
    <path id="Path_23" data-name="Path 23" d="M21.368,2.617A3.191,3.191,0,0,0,19.642.265c-1.768-.827-4.072.35-5.136,2.624l-4,8.542c-1.1,2.351-.966,4.574.311,5.171a2.2,2.2,0,0,0,2.325-.567,7.3,7.3,0,0,0,1.844-2.509l4.1-8.774a.594.594,0,1,0-1.076-.5l-4.1,8.774a6.193,6.193,0,0,1-1.525,2.1c-.432.357-.84.513-1.065.407-.475-.222-.609-1.732.261-3.593l4-8.541c.786-1.681,2.382-2.6,3.557-2.051A2.038,2.038,0,0,1,20.2,2.856a4.11,4.11,0,0,1-.361,2.53L15.7,14.242a9.714,9.714,0,0,1-4.326,4.405A2.292,2.292,0,0,1,9.5,18.571a2.236,2.236,0,0,1-1.132-1.442A10.974,10.974,0,0,1,9.2,10.9L13.41,1.893a.594.594,0,1,0-1.076-.5L8.119,10.4a11.958,11.958,0,0,0-.9,7.035,3.41,3.41,0,0,0,1.737,2.192A3.366,3.366,0,0,0,10.5,20a3.661,3.661,0,0,0,1.293-.241,10.734,10.734,0,0,0,4.983-5.013L20.92,5.889A5.3,5.3,0,0,0,21.368,2.617Z" transform="translate(-7.012 0)" fill="#010002"/>
  </g>
</svg>
